<svg width="149" height="48" viewBox="0 0 149 48" fill="none" xmlns="http://www.w3.org/2000/svg">
<path d="M4.66914 16.049L18.7333 5.27726" stroke="#D13707" stroke-width="1.6"/>
<line y1="-0.8" x2="17.7153" y2="-0.8" transform="matrix(-0.910115 -0.414357 -0.414357 0.910115 33.6509 13.1862)" stroke="#D13707" stroke-width="1.6"/>
<line y1="-0.8" x2="17.7153" y2="-0.8" transform="matrix(-0.112942 -0.993602 -0.993602 0.112942 5.29305 32.7101)" stroke="#D13707" stroke-width="1.6"/>
<line x1="35.795" y1="28.4045" x2="21.7308" y2="39.1763" stroke="#D13707" stroke-width="1.6"/>
<line y1="-0.8" x2="17.7153" y2="-0.8" transform="matrix(0.910115 0.414357 0.414357 -0.910115 6.63083 31.0292)" stroke="#D13707" stroke-width="1.6"/>
<line y1="-0.8" x2="17.7153" y2="-0.8" transform="matrix(0.112942 0.993602 0.993602 -0.112942 34.9886 11.5053)" stroke="#D13707" stroke-width="1.6"/>
<circle cx="4.93096" cy="16.4124" r="3" transform="rotate(-6.48494 4.93096 16.4124)" fill="#D13707"/>
<circle cx="18.3196" cy="5.31963" r="3" transform="rotate(-6.48494 18.3196 5.31963)" fill="#D13707"/>
<circle cx="35.118" cy="12.9811" r="3" transform="rotate(-6.48494 35.118 12.9811)" fill="#D13707"/>
<circle cx="36.8337" cy="28.0746" r="3" transform="rotate(-6.48494 36.8337 28.0746)" fill="#D13707"/>
<circle cx="22.3196" cy="38.3196" r="3" transform="rotate(-6.48494 22.3196 38.3196)" fill="#D13707"/>
<circle cx="6.31963" cy="31.3196" r="3" transform="rotate(-6.48494 6.31963 31.3196)" fill="#D13707"/>
<path d="M31.192 19.864C30.8293 19.2667 30.328 18.808 29.688 18.488C29.0693 18.168 28.3333 18.008 27.48 18.008C25.9013 18.008 24.6533 18.52 23.736 19.544C22.84 20.568 22.392 21.944 22.392 23.672C22.392 25.6133 22.872 27.096 23.832 28.12C24.8133 29.1227 26.232 29.624 28.088 29.624C30.2853 29.624 31.8533 28.632 32.792 26.648H26.488V22.136H38.2V28.216C37.7093 29.4107 36.984 30.5307 36.024 31.576C35.0853 32.6213 33.8907 33.4853 32.44 34.168C30.9893 34.8293 29.336 35.16 27.48 35.16C25.2187 35.16 23.2133 34.68 21.464 33.72C19.736 32.7387 18.392 31.384 17.432 29.656C16.4933 27.9067 16.024 25.912 16.024 23.672C16.024 21.4533 16.4933 19.48 17.432 17.752C18.392 16.0027 19.736 14.648 21.464 13.688C23.192 12.7067 25.1867 12.216 27.448 12.216C30.2853 12.216 32.632 12.8987 34.488 14.264C36.344 15.6293 37.496 17.496 37.944 19.864H31.192ZM47.2828 20.216C47.9868 19.192 48.8401 18.3813 49.8428 17.784C50.8454 17.1867 51.9228 16.888 53.0748 16.888V23.576H51.3148C49.9494 23.576 48.9361 23.8427 48.2748 24.376C47.6134 24.9093 47.2828 25.8373 47.2828 27.16V35H41.0108V17.048H47.2828V20.216ZM54.2993 26.008C54.2993 24.152 54.6299 22.5307 55.2913 21.144C55.9739 19.7573 56.8913 18.6907 58.0433 17.944C59.2166 17.1973 60.5179 16.824 61.9473 16.824C63.1846 16.824 64.2513 17.0693 65.1473 17.56C66.0433 18.0507 66.7366 18.712 67.2273 19.544V17.048H73.4993V35H67.2273V32.504C66.7366 33.336 66.0326 33.9973 65.1153 34.488C64.2193 34.9787 63.1633 35.224 61.9473 35.224C60.5179 35.224 59.2166 34.8507 58.0433 34.104C56.8913 33.3573 55.9739 32.2907 55.2913 30.904C54.6299 29.496 54.2993 27.864 54.2993 26.008ZM67.2273 26.008C67.2273 24.856 66.9073 23.9493 66.2673 23.288C65.6486 22.6267 64.8806 22.296 63.9633 22.296C63.0246 22.296 62.2459 22.6267 61.6273 23.288C61.0086 23.928 60.6993 24.8347 60.6993 26.008C60.6993 27.16 61.0086 28.0773 61.6273 28.76C62.2459 29.4213 63.0246 29.752 63.9633 29.752C64.8806 29.752 65.6486 29.4213 66.2673 28.76C66.9073 28.0987 67.2273 27.1813 67.2273 26.008ZM86.7693 22.264H83.9533V35H77.6493V22.264H75.6973V17.048H77.6493V16.888C77.6493 14.584 78.3213 12.824 79.6653 11.608C81.0306 10.3707 82.9826 9.752 85.5213 9.752C86.0333 9.752 86.4279 9.76267 86.7053 9.784V15.128C86.5346 15.1067 86.2999 15.096 86.0013 15.096C85.3186 15.096 84.8173 15.256 84.4973 15.576C84.1773 15.8747 83.9959 16.3653 83.9533 17.048H86.7693V22.264ZM106.163 25.816C106.163 26.3067 106.131 26.7973 106.067 27.288H94.1948C94.2588 28.2693 94.5254 29.0053 94.9948 29.496C95.4854 29.9653 96.1041 30.2 96.8508 30.2C97.8961 30.2 98.6428 29.7307 99.0908 28.792H105.779C105.501 30.0293 104.957 31.1387 104.147 32.12C103.357 33.08 102.355 33.8373 101.139 34.392C99.9228 34.9467 98.5788 35.224 97.1068 35.224C95.3361 35.224 93.7574 34.8507 92.3708 34.104C91.0054 33.3573 89.9281 32.2907 89.1388 30.904C88.3708 29.5173 87.9868 27.8853 87.9868 26.008C87.9868 24.1307 88.3708 22.5093 89.1388 21.144C89.9068 19.7573 90.9734 18.6907 92.3388 17.944C93.7254 17.1973 95.3148 16.824 97.1068 16.824C98.8774 16.824 100.445 17.1867 101.811 17.912C103.176 18.6373 104.243 19.6827 105.011 21.048C105.779 22.392 106.163 23.9813 106.163 25.816ZM99.7628 24.248C99.7628 23.48 99.5068 22.8827 98.9948 22.456C98.4828 22.008 97.8428 21.784 97.0748 21.784C96.3068 21.784 95.6774 21.9973 95.1868 22.424C94.6961 22.8293 94.3761 23.4373 94.2268 24.248H99.7628ZM120.474 16.888C122.543 16.888 124.186 17.5813 125.402 18.968C126.618 20.3333 127.226 22.1893 127.226 24.536V35H120.954V25.368C120.954 24.344 120.687 23.544 120.154 22.968C119.62 22.3707 118.906 22.072 118.01 22.072C117.071 22.072 116.335 22.3707 115.802 22.968C115.268 23.544 115.002 24.344 115.002 25.368V35H108.73V17.048H115.002V19.608C115.556 18.7973 116.303 18.1467 117.242 17.656C118.18 17.144 119.258 16.888 120.474 16.888ZM147.819 25.816C147.819 26.3067 147.787 26.7973 147.723 27.288H135.851C135.915 28.2693 136.182 29.0053 136.651 29.496C137.142 29.9653 137.76 30.2 138.507 30.2C139.552 30.2 140.299 29.7307 140.747 28.792H147.435C147.158 30.0293 146.614 31.1387 145.803 32.12C145.014 33.08 144.011 33.8373 142.795 34.392C141.579 34.9467 140.235 35.224 138.763 35.224C136.992 35.224 135.414 34.8507 134.027 34.104C132.662 33.3573 131.584 32.2907 130.795 30.904C130.027 29.5173 129.643 27.8853 129.643 26.008C129.643 24.1307 130.027 22.5093 130.795 21.144C131.563 19.7573 132.63 18.6907 133.995 17.944C135.382 17.1973 136.971 16.824 138.763 16.824C140.534 16.824 142.102 17.1867 143.467 17.912C144.832 18.6373 145.899 19.6827 146.667 21.048C147.435 22.392 147.819 23.9813 147.819 25.816ZM141.419 24.248C141.419 23.48 141.163 22.8827 140.651 22.456C140.139 22.008 139.499 21.784 138.731 21.784C137.963 21.784 137.334 21.9973 136.843 22.424C136.352 22.8293 136.032 23.4373 135.883 24.248H141.419Z" fill="white"/>
</svg>
